<?xml version="1.0" encoding="utf-8"?>
<!-- Generator: Adobe Illustrator 16.0.0, SVG Export Plug-In . SVG Version: 6.00 Build 0)  -->
<!DOCTYPE svg PUBLIC "-//W3C//DTD SVG 1.1//EN" "http://www.w3.org/Graphics/SVG/1.1/DTD/svg11.dtd">
<svg version="1.1" id="Layer_1" xmlns="http://www.w3.org/2000/svg" xmlns:xlink="http://www.w3.org/1999/xlink" x="0px" y="0px"
	 width="1020.473px" height="181.417px" viewBox="-56.693 36.85 1020.473 181.417"
	 enable-background="new -56.693 36.85 1020.473 181.417" xml:space="preserve">
<g>
	<path fill="#6B7280" d="M713.336,147.642l15.366,10.243c-4.987,7.345-16.916,19.947-37.537,19.947
		c-25.607,0-44.682-19.813-44.682-45.017c0-26.822,19.274-45.017,42.524-45.017c23.387,0,34.843,18.6,38.549,28.641l2.021,5.122
		l-60.247,24.936c4.582,9.028,11.726,13.611,21.833,13.611C701.272,160.108,708.282,155.122,713.336,147.642L713.336,147.642z
		 M666.094,131.399l40.233-16.712c-2.225-5.593-8.829-9.57-16.714-9.57C679.573,105.117,665.624,114.013,666.094,131.399
		L666.094,131.399z"/>
	<path fill="#6B7280" d="M617.439,41.904h19.41v131.818h-19.41V41.904L617.439,41.904z"/>
	<path fill="#6B7280" d="M586.844,91.302h18.734v80.063c0,33.225-19.612,46.903-42.794,46.903
		c-21.835,0-34.977-14.691-39.895-26.619l17.184-7.145c3.101,7.347,10.581,16.04,22.711,16.04c14.894,0,24.06-9.233,24.06-26.485
		v-6.47h-0.676c-4.446,5.391-12.939,10.242-23.72,10.242c-22.511,0-43.133-19.61-43.133-44.882
		c0-25.406,20.622-45.219,43.133-45.219c10.712,0,19.272,4.784,23.72,10.041h0.676V91.302L586.844,91.302z M588.192,132.95
		c0-15.905-10.581-27.497-24.061-27.497c-13.613,0-25.069,11.591-25.069,27.497c0,15.702,11.456,27.09,25.069,27.09
		C577.611,160.108,588.192,148.652,588.192,132.95L588.192,132.95z"/>
	<path fill="#6B7280" d="M412.771,132.613c0,25.944-20.218,45.018-45.017,45.018c-24.8,0-45.018-19.14-45.018-45.018
		c0-26.081,20.218-45.085,45.018-45.085C392.553,87.528,412.771,106.532,412.771,132.613L412.771,132.613z M393.093,132.613
		c0-16.175-11.726-27.294-25.338-27.294c-13.613,0-25.339,11.12-25.339,27.294c0,16.039,11.726,27.294,25.339,27.294
		C381.367,159.907,393.093,148.652,393.093,132.613L393.093,132.613z"/>
	<path fill="#6B7280" d="M511.094,132.815c0,25.945-20.216,45.017-45.016,45.017s-45.018-19.071-45.018-45.017
		c0-26.08,20.218-45.017,45.018-45.017S511.094,106.667,511.094,132.815L511.094,132.815z M491.348,132.815
		c0-16.174-11.726-27.294-25.337-27.294c-13.613,0-25.34,11.12-25.34,27.294c0,16.039,11.727,27.293,25.34,27.293
		C479.69,160.108,491.348,148.787,491.348,132.815L491.348,132.815z"/>
	<path fill="#6B7280" d="M248.74,158.086c-28.237,0-50.342-22.777-50.342-51.015c0-28.236,22.105-51.015,50.342-51.015
		c15.231,0,26.351,5.999,34.572,13.682l13.546-13.546c-11.457-10.986-26.755-19.341-48.118-19.341
		c-38.682,0-71.233,31.54-71.233,70.221c0,38.683,32.551,70.222,71.233,70.222c20.891,0,36.661-6.873,48.994-19.678
		c12.67-12.67,16.579-30.46,16.579-44.884c0-4.515-0.539-9.164-1.146-12.602h-64.426v18.735h45.894
		c-1.349,11.727-5.055,19.747-10.514,25.205C277.517,150.741,267.071,158.086,248.74,158.086L248.74,158.086L248.74,158.086z"/>
</g>
</svg>
