<?xml version="1.0" encoding="utf-8"?>
<!-- Generator: Adobe Illustrator 16.0.0, SVG Export Plug-In . SVG Version: 6.00 Build 0)  -->
<!DOCTYPE svg PUBLIC "-//W3C//DTD SVG 1.1//EN" "http://www.w3.org/Graphics/SVG/1.1/DTD/svg11.dtd">
<svg version="1.1" id="Layer_1" xmlns="http://www.w3.org/2000/svg" xmlns:xlink="http://www.w3.org/1999/xlink" x="0px" y="0px"
	 width="1020.473px" height="181.417px" viewBox="-56.693 36.85 1020.473 181.417"
	 enable-background="new -56.693 36.85 1020.473 181.417" xml:space="preserve">
<g>
	<path fill="#6B7280" d="M878.429,118.92v-14.944h-18.558V80.742l-0.626,0.194l-17.432,5.333l-0.342,0.104v17.604h-27.513v-9.805
		c0-4.566,1.021-8.061,3.032-10.391c1.999-2.302,4.856-3.473,8.501-3.473c2.622,0,5.336,0.617,8.066,1.834l0.685,0.305V66.709
		l-0.321-0.118c-2.547-0.915-6.014-1.377-10.308-1.377c-5.413,0-10.332,1.177-14.621,3.512c-4.291,2.337-7.668,5.675-10.032,9.919
		c-2.357,4.237-3.554,9.132-3.554,14.551v10.78h-12.922v14.944h12.922v62.958h18.552v-62.958h27.513v40.009
		c0,16.479,7.772,24.827,23.1,24.827c2.52,0,5.17-0.295,7.877-0.872c2.755-0.595,4.632-1.187,5.735-1.819l0.244-0.146v-15.082
		l-0.754,0.5c-1.008,0.673-2.262,1.218-3.731,1.627c-1.478,0.415-2.709,0.623-3.664,0.623c-3.592,0-6.248-0.968-7.896-2.877
		c-1.667-1.928-2.513-5.298-2.513-10.01v-36.781L878.429,118.92L878.429,118.92z M741.057,168.589
		c-6.732,0-12.041-2.233-15.781-6.631c-3.765-4.42-5.672-10.722-5.672-18.728c0-8.262,1.907-14.728,5.674-19.225
		c3.742-4.469,9.001-6.737,15.63-6.737c6.433,0,11.553,2.167,15.22,6.441c3.688,4.298,5.556,10.711,5.556,19.068
		c0,8.461-1.759,14.958-5.228,19.306C753.011,166.397,747.831,168.589,741.057,168.589L741.057,168.589z M741.884,102.099
		c-12.846,0-23.05,3.764-30.324,11.188c-7.271,7.424-10.958,17.697-10.958,30.541c0,12.197,3.6,22.009,10.695,29.155
		c7.099,7.151,16.756,10.772,28.706,10.772c12.454,0,22.453-3.816,29.727-11.343c7.271-7.521,10.953-17.697,10.953-30.239
		c0-12.387-3.456-22.271-10.276-29.372C763.582,105.7,753.985,102.099,741.884,102.099L741.884,102.099z M670.693,102.099
		c-8.739,0-15.966,2.235-21.489,6.642c-5.554,4.434-8.372,10.248-8.372,17.283c0,3.658,0.608,6.905,1.806,9.663
		c1.205,2.765,3.068,5.198,5.544,7.238c2.458,2.027,6.25,4.15,11.276,6.311c4.225,1.739,7.376,3.208,9.377,4.368
		c1.956,1.136,3.345,2.278,4.13,3.389c0.762,1.088,1.148,2.578,1.148,4.416c0,5.233-3.919,7.78-11.983,7.78
		c-2.99,0-6.403-0.625-10.143-1.855c-3.74-1.23-7.235-2.999-10.384-5.267l-0.771-0.552v17.86l0.284,0.131
		c2.625,1.212,5.935,2.232,9.835,3.038c3.893,0.803,7.43,1.214,10.503,1.214c9.482,0,17.118-2.245,22.688-6.678
		c5.607-4.464,8.449-10.417,8.449-17.697c0-5.25-1.529-9.753-4.545-13.385c-2.994-3.603-8.191-6.91-15.442-9.834
		c-5.774-2.317-9.476-4.241-11-5.719c-1.473-1.426-2.219-3.445-2.219-5.999c0-2.266,0.921-4.082,2.814-5.552
		c1.908-1.478,4.563-2.229,7.895-2.229c3.092,0,6.254,0.488,9.397,1.444c3.144,0.956,5.905,2.237,8.21,3.805l0.757,0.518v-16.94
		l-0.29-0.126c-2.126-0.911-4.93-1.692-8.334-2.325C676.442,102.417,673.366,102.099,670.693,102.099L670.693,102.099z
		 M592.47,168.589c-6.73,0-12.041-2.233-15.782-6.631c-3.766-4.42-5.669-10.72-5.669-18.728c0-8.262,1.905-14.728,5.674-19.225
		c3.741-4.469,8.997-6.737,15.629-6.737c6.431,0,11.55,2.167,15.219,6.441c3.688,4.298,5.556,10.711,5.556,19.068
		c0,8.461-1.76,14.958-5.229,19.306C604.424,166.397,599.246,168.589,592.47,168.589L592.47,168.589z M593.299,102.099
		c-12.851,0-23.053,3.764-30.324,11.188s-10.959,17.697-10.959,30.541c0,12.201,3.601,22.009,10.698,29.155
		c7.098,7.151,16.755,10.772,28.705,10.772c12.45,0,22.453-3.816,29.726-11.343c7.27-7.521,10.955-17.697,10.955-30.239
		c0-12.387-3.458-22.271-10.279-29.372C614.992,105.7,605.398,102.099,593.299,102.099L593.299,102.099z M523.857,117.467v-13.491
		h-18.326v77.902h18.326v-39.85c0-6.777,1.535-12.343,4.567-16.548c2.993-4.154,6.981-6.259,11.851-6.259
		c1.651,0,3.503,0.272,5.51,0.81c1.987,0.536,3.427,1.116,4.274,1.728l0.77,0.558v-18.476l-0.296-0.126
		c-1.707-0.727-4.12-1.091-7.176-1.091c-4.604,0-8.728,1.479-12.255,4.393c-3.098,2.561-5.338,6.071-7.051,10.45H523.857
		L523.857,117.467z M472.715,102.099c-8.406,0-15.905,1.803-22.286,5.356c-6.391,3.562-11.333,8.647-14.696,15.113
		c-3.347,6.451-5.048,13.986-5.048,22.389c0,7.36,1.65,14.115,4.906,20.066c3.259,5.964,7.873,10.629,13.712,13.864
		c5.832,3.23,12.572,4.87,20.032,4.87c8.708,0,16.144-1.741,22.106-5.174l0.24-0.139v-16.788l-0.77,0.563
		c-2.699,1.965-5.718,3.536-8.966,4.667c-3.239,1.131-6.192,1.704-8.78,1.704c-7.19,0-12.963-2.252-17.152-6.687
		c-4.2-4.442-6.33-10.677-6.33-18.527c0-7.897,2.221-14.295,6.597-19.014c4.36-4.707,10.146-7.093,17.188-7.093
		c6.022,0,11.892,2.039,17.444,6.068l0.768,0.556v-17.688l-0.246-0.14c-2.091-1.17-4.939-2.135-8.479-2.867
		C479.435,102.467,475.99,102.099,472.715,102.099L472.715,102.099z M418.065,103.976h-18.324v77.902h18.324V103.976
		L418.065,103.976z M409.091,70.789c-3.018,0-5.646,1.027-7.809,3.062c-2.169,2.041-3.271,4.61-3.271,7.64
		c0,2.985,1.088,5.506,3.237,7.494c2.136,1.979,4.774,2.983,7.843,2.983c3.067,0,5.716-1.003,7.877-2.981
		c2.175-1.989,3.278-4.51,3.278-7.496c0-2.925-1.074-5.468-3.188-7.558C414.945,71.848,412.263,70.789,409.091,70.789
		L409.091,70.789z M363.368,98.229v83.649h18.702V73.176h-25.881l-32.9,80.739l-31.927-80.739h-26.937v108.7h17.573V98.221h0.604
		l33.713,83.655h13.263l33.186-83.647H363.368L363.368,98.229z"/>
	<path fill="#6B7280" d="M114.861,123.054H28.657V36.85h86.204V123.054L114.861,123.054z"/>
	<path fill="#6B7280" d="M210.042,123.054h-86.204V36.85h86.204V123.054L210.042,123.054z"/>
	<path fill="#6B7280" d="M114.859,218.268H28.657v-86.204h86.202V218.268L114.859,218.268z"/>
	<path fill="#6B7280" d="M210.042,218.268h-86.204v-86.204h86.204V218.268L210.042,218.268z"/>
</g>
</svg>
