<?xml version="1.0" encoding="utf-8"?>
<!-- Generator: Adobe Illustrator 16.0.0, SVG Export Plug-In . SVG Version: 6.00 Build 0)  -->
<!DOCTYPE svg PUBLIC "-//W3C//DTD SVG 1.1//EN" "http://www.w3.org/Graphics/SVG/1.1/DTD/svg11.dtd">
<svg version="1.1" id="Layer_1" xmlns="http://www.w3.org/2000/svg" xmlns:xlink="http://www.w3.org/1999/xlink" x="0px" y="0px"
	 width="1020.473px" height="181.418px" viewBox="-328.965 437.57 1020.473 181.418"
	 enable-background="new -328.965 437.57 1020.473 181.418" xml:space="preserve">
<title>facebook</title>
<g id="_Group_">
	<path id="_Path_" fill="#6B7280" d="M-217.113,467.615c-11.078,0-14.402,4.874-14.402,15.731v17.946h29.69l-2.879,29.25h-26.812
		v88.405h-35.673v-88.405h-23.93v-29.027h23.93v-17.505c0-29.691,11.964-45.2,44.979-45.2c6.869,0,13.96,0.442,20.827,1.329v27.477"
		/>
	<path id="_Compound_Path_" fill="#6B7280" d="M-199.388,556.465c0-32.794,15.511-57.608,48.304-57.608
		c17.725,0,28.581,9.083,33.898,20.605v-17.945h34.125v117.654h-34.345v-17.727c-4.875,11.3-16.175,20.162-33.9,20.162
		c-32.571,0-48.304-24.594-48.304-57.606 M-163.715,564.441c0,17.503,6.423,29.248,23.043,29.248
		c14.624,0,21.936-10.636,21.936-27.476v-11.967c0-16.839-7.532-27.475-21.936-27.475c-16.617,0-23.043,11.521-23.043,29.248
		V564.441z"/>
	<path id="_Path_2" fill="#6B7280" d="M-9.056,498.856c13.737,0,27.03,2.879,34.121,7.976l-7.976,25.258
		c-7.311-3.543-15.512-5.314-23.709-5.314c-19.275,0-27.694,11.078-27.694,30.135v6.867c0,19.055,8.419,30.134,27.694,30.134
		c8.197,0,16.398-1.993,23.709-5.536l7.976,25.259c-7.091,4.873-20.161,7.977-34.121,7.977c-41.878,0-60.711-22.377-60.711-58.495
		v-5.538C-69.767,521.456-50.934,498.856-9.056,498.856"/>
	<path id="_Compound_Path_2" fill="#6B7280" d="M29.718,564.663v-10.415c0-33.454,19.055-55.391,57.83-55.391
		c36.56,0,52.731,22.157,52.731,54.949v18.834H65.391c0.664,16.173,7.977,23.264,27.696,23.264c12.852,0,25.703-2.438,37.888-7.091
		l6.425,24.374c-9.306,4.875-28.584,8.64-45.644,8.64C46.558,621.606,29.718,599.229,29.718,564.663 M65.391,549.154h42.982v-2.882
		c0-12.851-5.095-23.042-20.827-23.042C71.595,523.23,65.391,533.422,65.391,549.154"/>
	<path id="_Compound_Path_3" fill="#6B7280" d="M272.339,563.998c0,32.791-15.73,57.606-48.523,57.606
		c-17.727,0-30.136-8.861-35.01-20.162v17.726h-33.681V442.355l35.674-3.103v78.659c5.095-10.413,16.616-18.831,33.235-18.831
		c32.572,0,48.526,24.593,48.526,57.607 M236.665,555.799c0-16.616-6.424-29.025-23.485-29.025
		c-14.624,0-22.379,10.413-22.379,27.253v12.408c0,16.841,7.977,27.255,22.379,27.255c17.06,0,23.485-12.407,23.485-29.026V555.799z
		"/>
	<path id="_Compound_Path_4" fill="#6B7280" d="M284.083,563.112v-5.981c0-33.9,19.275-58.274,58.492-58.274
		c39.219,0,58.495,24.374,58.495,58.274v5.981c0,33.899-19.276,58.272-58.495,58.272
		C303.359,621.385,284.083,597.233,284.083,563.112 M365.62,554.691c0-15.509-6.424-27.918-23.045-27.918
		c-16.616,0-23.045,12.408-23.045,27.918v11.079c0,15.511,6.426,27.92,23.045,27.92s23.045-12.407,23.045-27.92V554.691z"/>
	<path id="_Compound_Path_5" fill="#6B7280" d="M413.258,563.112v-5.981c0-33.9,19.277-58.274,58.496-58.274
		c39.216,0,58.493,24.374,58.493,58.274v5.981c0,33.899-19.277,58.272-58.493,58.272
		C432.535,621.385,413.258,597.233,413.258,563.112 M494.797,554.691c0-15.509-6.427-27.918-23.043-27.918
		c-16.619,0-23.047,12.408-23.047,27.918v11.079c0,15.511,6.425,27.92,23.047,27.92c16.616,0,23.043-12.407,23.043-27.92V554.691z"
		/>
	<path id="_Path_3" fill="#6B7280" d="M579.216,557.572l35.229-56.279h37.669l-36.783,58.273l38.331,59.603h-37.889l-36.559-57.607
		v57.607h-35.453V442.355l35.453-3.322"/>
</g>
</svg>
